<svg width="60" height="60" viewBox="0 0 60 60" xmlns="http://www.w3.org/2000/svg">
  <defs>
    <linearGradient id="wheelGradient" x1="0%" y1="0%" x2="100%" y2="100%">
      <stop offset="0%" style="stop-color:#14b8a6;stop-opacity:1" />
      <stop offset="100%" style="stop-color:#0d9488;stop-opacity:1" />
    </linearGradient>
    <linearGradient id="bodyGradient" x1="0%" y1="0%" x2="100%" y2="0%">
      <stop offset="0%" style="stop-color:#14b8a6;stop-opacity:1" />
      <stop offset="100%" style="stop-color:#0d9488;stop-opacity:1" />
    </linearGradient>
  </defs>
  
  <!-- Main car wheel -->
  <circle cx="30" cy="30" r="25" fill="url(#wheelGradient)" stroke="#ffffff" stroke-width="2"/>
  
  <!-- Wheel inner design -->
  <circle cx="30" cy="30" r="18" fill="none" stroke="#ffffff" stroke-width="1.5" opacity="0.4"/>
  <circle cx="30" cy="30" r="12" fill="#ffffff" opacity="0.2"/>
  
  <!-- Car body inside wheel -->
  <path d="M15 25 L45 25 L43 35 L17 35 Z" fill="url(#bodyGradient)" opacity="0.9"/>
  
  <!-- Car roof -->
  <path d="M18 25 L42 25 L40 30 L20 30 Z" fill="#ffffff" opacity="0.8"/>
  
  <!-- Car windows -->
  <rect x="20" y="27" width="8" height="2" fill="#14b8a6" opacity="0.4"/>
  <rect x="32" y="27" width="8" height="2" fill="#14b8a6" opacity="0.4"/>
  
  <!-- Wheel center -->
  <circle cx="30" cy="30" r="6" fill="#ffffff" opacity="0.6"/>
  <circle cx="30" cy="30" r="3" fill="#14b8a6" opacity="0.8"/>
  
  <!-- Speed effect lines -->
  <path d="M5 20 L8 20" stroke="#14b8a6" stroke-width="2" opacity="0.7"/>
  <path d="M5 18 L7 18" stroke="#14b8a6" stroke-width="1.5" opacity="0.5"/>
  <path d="M5 22 L7 22" stroke="#14b8a6" stroke-width="1.5" opacity="0.5"/>
  <path d="M5 16 L6 16" stroke="#14b8a6" stroke-width="1" opacity="0.3"/>
  <path d="M5 24 L6 24" stroke="#14b8a6" stroke-width="1" opacity="0.3"/>
</svg>
