<svg width="60" height="60" viewBox="0 0 60 60" xmlns="http://www.w3.org/2000/svg">
  <defs>
    <linearGradient id="wheelGradient" x1="0%" y1="0%" x2="100%" y2="100%">
      <stop offset="0%" style="stop-color:#14b8a6;stop-opacity:1" />
      <stop offset="100%" style="stop-color:#0d9488;stop-opacity:1" />
    </linearGradient>
  </defs>
  
  <!-- Car steering wheel -->
  <circle cx="30" cy="30" r="22" fill="none" stroke="url(#wheelGradient)" stroke-width="4"/>
  
  <!-- Steering wheel spokes -->
  <line x1="30" y1="8" x2="30" y2="52" stroke="url(#wheelGradient)" stroke-width="3"/>
  <line x1="8" y1="30" x2="52" y2="30" stroke="url(#wheelGradient)" stroke-width="3"/>
  <line x1="15" y1="15" x2="45" y2="45" stroke="url(#wheelGradient)" stroke-width="2" opacity="0.7"/>
  <line x1="45" y1="15" x2="15" y2="45" stroke="url(#wheelGradient)" stroke-width="2" opacity="0.7"/>
  
  <!-- Center hub -->
  <circle cx="30" cy="30" r="8" fill="url(#wheelGradient)"/>
  <circle cx="30" cy="30" r="5" fill="#ffffff" opacity="0.8"/>
  
  <!-- Car icon in center -->
  <path d="M25 28 L35 28 L34 32 L26 32 Z" fill="#14b8a6" opacity="0.9"/>
  <rect x="27" y="30" width="6" height="1" fill="#ffffff" opacity="0.7"/>
  
  <!-- Speed lines around wheel -->
  <path d="M5 10 L8 10" stroke="#14b8a6" stroke-width="2" opacity="0.6"/>
  <path d="M5 8 L7 8" stroke="#14b8a6" stroke-width="1.5" opacity="0.4"/>
  <path d="M5 12 L7 12" stroke="#14b8a6" stroke-width="1.5" opacity="0.4"/>
  
  <path d="M52 10 L55 10" stroke="#14b8a6" stroke-width="2" opacity="0.6"/>
  <path d="M53 8 L55 8" stroke="#14b8a6" stroke-width="1.5" opacity="0.4"/>
  <path d="M53 12 L55 12" stroke="#14b8a6" stroke-width="1.5" opacity="0.4"/>
</svg>
