<svg width="60" height="60" viewBox="0 0 60 60" xmlns="http://www.w3.org/2000/svg">
  <defs>
    <linearGradient id="carGradient" x1="0%" y1="0%" x2="100%" y2="100%">
      <stop offset="0%" style="stop-color:#14b8a6;stop-opacity:1" />
      <stop offset="100%" style="stop-color:#0d9488;stop-opacity:1" />
    </linearGradient>
    <linearGradient id="alloyGradient" x1="0%" y1="0%" x2="100%" y2="100%">
      <stop offset="0%" style="stop-color:#e5e7eb;stop-opacity:1" />
      <stop offset="50%" style="stop-color:#f3f4f6;stop-opacity:1" />
      <stop offset="100%" style="stop-color:#d1d5db;stop-opacity:1" />
    </linearGradient>
  </defs>
  
  <!-- Sports car body -->
  <path d="M8 25 L52 25 L50 40 L10 40 Z" fill="url(#carGradient)" stroke="#ffffff" stroke-width="1"/>
  
  <!-- Sports car roof (low profile) -->
  <path d="M12 25 L48 25 L46 32 L14 32 Z" fill="#ffffff" opacity="0.9"/>
  
  <!-- Sports car windows -->
  <rect x="15" y="27" width="12" height="4" fill="#14b8a6" opacity="0.3"/>
  <rect x="33" y="27" width="12" height="4" fill="#14b8a6" opacity="0.3"/>
  
  <!-- Alloy wheels -->
  <g transform="translate(18, 38)">
    <!-- Wheel rim -->
    <circle cx="0" cy="0" r="8" fill="url(#alloyGradient)" stroke="#9ca3af" stroke-width="1"/>
    <!-- Alloy spokes -->
    <circle cx="0" cy="0" r="6" fill="none" stroke="#6b7280" stroke-width="1"/>
    <circle cx="0" cy="0" r="4" fill="none" stroke="#6b7280" stroke-width="1"/>
    <circle cx="0" cy="0" r="2" fill="none" stroke="#6b7280" stroke-width="1"/>
    <!-- Center hub -->
    <circle cx="0" cy="0" r="1.5" fill="#14b8a6"/>
  </g>
  
  <g transform="translate(42, 38)">
    <!-- Wheel rim -->
    <circle cx="0" cy="0" r="8" fill="url(#alloyGradient)" stroke="#9ca3af" stroke-width="1"/>
    <!-- Alloy spokes -->
    <circle cx="0" cy="0" r="6" fill="none" stroke="#6b7280" stroke-width="1"/>
    <circle cx="0" cy="0" r="4" fill="none" stroke="#6b7280" stroke-width="1"/>
    <circle cx="0" cy="0" r="2" fill="none" stroke="#6b7280" stroke-width="1"/>
    <!-- Center hub -->
    <circle cx="0" cy="0" r="1.5" fill="#14b8a6"/>
  </g>
  
  <!-- Sports car headlights -->
  <ellipse cx="10" cy="28" rx="3" ry="2" fill="#ffffff" opacity="0.9"/>
  <ellipse cx="50" cy="28" rx="3" ry="2" fill="#ffffff" opacity="0.9"/>
  <ellipse cx="10" cy="28" rx="2" ry="1.5" fill="#14b8a6" opacity="0.6"/>
  <ellipse cx="50" cy="28" rx="2" ry="1.5" fill="#14b8a6" opacity="0.6"/>
  
  <!-- Sports car grille -->
  <rect x="28" y="27" width="4" height="2" fill="#2d3748" opacity="0.8"/>
  
  <!-- Speed lines -->
  <path d="M2 20 L6 20" stroke="#14b8a6" stroke-width="2" opacity="0.8"/>
  <path d="M2 17 L5 17" stroke="#14b8a6" stroke-width="1.5" opacity="0.6"/>
  <path d="M2 23 L5 23" stroke="#14b8a6" stroke-width="1.5" opacity="0.6"/>
  <path d="M2 14 L4 14" stroke="#14b8a6" stroke-width="1" opacity="0.4"/>
  <path d="M2 26 L4 26" stroke="#14b8a6" stroke-width="1" opacity="0.4"/>
</svg>
