<svg width="60" height="60" viewBox="0 0 60 60" xmlns="http://www.w3.org/2000/svg">
  <defs>
    <linearGradient id="carGradient" x1="0%" y1="0%" x2="100%" y2="100%">
      <stop offset="0%" style="stop-color:#14b8a6;stop-opacity:1" />
      <stop offset="100%" style="stop-color:#0d9488;stop-opacity:1" />
    </linearGradient>
  </defs>
  
  <!-- Car body -->
  <path d="M8 20 L52 20 L50 35 L10 35 Z" fill="url(#carGradient)" stroke="#ffffff" stroke-width="1"/>
  
  <!-- Car roof -->
  <path d="M12 20 L48 20 L46 28 L14 28 Z" fill="#ffffff" opacity="0.9"/>
  
  <!-- Car windows -->
  <rect x="15" y="22" width="10" height="5" fill="#14b8a6" opacity="0.3"/>
  <rect x="35" y="22" width="10" height="5" fill="#14b8a6" opacity="0.3"/>
  
  <!-- Car wheels -->
  <circle cx="18" cy="38" r="7" fill="#2d3748"/>
  <circle cx="42" cy="38" r="7" fill="#2d3748"/>
  <circle cx="18" cy="38" r="5" fill="#4a5568"/>
  <circle cx="42" cy="38" r="5" fill="#4a5568"/>
  <circle cx="18" cy="38" r="3" fill="#14b8a6"/>
  <circle cx="42" cy="38" r="3" fill="#14b8a6"/>
  <circle cx="18" cy="38" r="1.5" fill="#ffffff"/>
  <circle cx="42" cy="38" r="1.5" fill="#ffffff"/>
  
  <!-- Headlights -->
  <circle cx="10" cy="25" r="2.5" fill="#ffffff" opacity="0.9"/>
  <circle cx="50" cy="25" r="2.5" fill="#ffffff" opacity="0.9"/>
  <circle cx="10" cy="25" r="1.5" fill="#14b8a6" opacity="0.6"/>
  <circle cx="50" cy="25" r="1.5" fill="#14b8a6" opacity="0.6"/>
  
  <!-- Grille -->
  <rect x="28" y="22" width="4" height="3" fill="#2d3748" opacity="0.7"/>
  
  <!-- Motion lines -->
  <path d="M2 15 L6 15" stroke="#14b8a6" stroke-width="2" opacity="0.8"/>
  <path d="M2 12 L5 12" stroke="#14b8a6" stroke-width="1.5" opacity="0.6"/>
  <path d="M2 18 L5 18" stroke="#14b8a6" stroke-width="1.5" opacity="0.6"/>
  <path d="M2 9 L4 9" stroke="#14b8a6" stroke-width="1" opacity="0.4"/>
  <path d="M2 21 L4 21" stroke="#14b8a6" stroke-width="1" opacity="0.4"/>
</svg>
