<svg width="60" height="60" viewBox="0 0 60 60" xmlns="http://www.w3.org/2000/svg">
  <defs>
    <linearGradient id="carGradient" x1="0%" y1="0%" x2="100%" y2="100%">
      <stop offset="0%" style="stop-color:#14b8a6;stop-opacity:1" />
      <stop offset="100%" style="stop-color:#0d9488;stop-opacity:1" />
    </linearGradient>
  </defs>
  
  <!-- Car body -->
  <path d="M10 25 L50 25 L48 40 L12 40 Z" fill="url(#carGradient)" stroke="#ffffff" stroke-width="1"/>
  
  <!-- Car roof -->
  <path d="M15 25 L45 25 L43 32 L17 32 Z" fill="#ffffff" opacity="0.9"/>
  
  <!-- Car windows -->
  <rect x="18" y="27" width="8" height="4" fill="#14b8a6" opacity="0.3"/>
  <rect x="34" y="27" width="8" height="4" fill="#14b8a6" opacity="0.3"/>
  
  <!-- Car wheels -->
  <circle cx="18" cy="42" r="6" fill="#2d3748"/>
  <circle cx="42" cy="42" r="6" fill="#2d3748"/>
  <circle cx="18" cy="42" r="4" fill="#4a5568"/>
  <circle cx="42" cy="42" r="4" fill="#4a5568"/>
  <circle cx="18" cy="42" r="2" fill="#14b8a6"/>
  <circle cx="42" cy="42" r="2" fill="#14b8a6"/>
  
  <!-- Headlights -->
  <circle cx="12" cy="30" r="2" fill="#ffffff" opacity="0.8"/>
  <circle cx="48" cy="30" r="2" fill="#ffffff" opacity="0.8"/>
  
  <!-- Speed lines -->
  <path d="M5 20 L8 20" stroke="#14b8a6" stroke-width="2" opacity="0.6"/>
  <path d="M5 18 L7 18" stroke="#14b8a6" stroke-width="1.5" opacity="0.4"/>
  <path d="M5 22 L7 22" stroke="#14b8a6" stroke-width="1.5" opacity="0.4"/>
</svg>
